<svg xmlns="http://www.w3.org/2000/svg"  viewBox="0 0 50 50" width="100px" height="100px"><path d="M 13 4 C 8.0414839 4 4 8.0414839 4 13 L 4 37 C 4 41.958516 8.0414839 46 13 46 L 37 46 C 41.958516 46 46 41.958516 46 37 L 46 13 C 46 8.0414839 41.958516 4 37 4 L 13 4 z M 13 6 L 37 6 C 40.877484 6 44 9.1225161 44 13 L 44 37 C 44 40.877484 40.877484 44 37 44 L 13 44 C 9.1225161 44 6 40.877484 6 37 L 6 13 C 6 9.1225161 9.1225161 6 13 6 z M 37.607422 20.861328 L 37.607422 27.585938 L 39.158203 27.585938 L 39.158203 20.861328 L 37.607422 20.861328 z M 8.4414062 21.244141 L 8.4414062 27.585938 L 11.486328 27.585938 C 12.844328 27.585937 13.701172 26.869813 13.701172 25.757812 C 13.701172 24.948813 13.061469 24.301813 12.230469 24.257812 L 12.230469 24.175781 C 12.902469 24.083781 13.412109 23.507172 13.412109 22.826172 C 13.412109 21.842172 12.664438 21.244141 11.398438 21.244141 L 8.4414062 21.244141 z M 20.398438 21.244141 L 20.398438 27.585938 L 22.011719 27.585938 L 22.011719 25.367188 L 22.847656 25.367188 L 23.931641 27.585938 L 25.742188 27.585938 L 24.476562 25.128906 C 25.170563 24.825906 25.558594 24.113937 25.558594 23.335938 C 25.558594 22.025938 24.670453 21.244141 23.189453 21.244141 L 20.398438 21.244141 z M 10.054688 22.382812 L 10.96875 22.382812 C 11.51775 22.382813 11.839844 22.654422 11.839844 23.107422 C 11.839844 23.556422 11.49525 23.828125 10.90625 23.828125 L 10.054688 23.828125 L 10.054688 22.382812 z M 22.011719 22.460938 L 22.960938 22.460938 C 23.535938 22.460938 23.910156 22.808609 23.910156 23.349609 C 23.910156 23.898609 23.557844 24.228516 22.964844 24.228516 L 22.011719 24.228516 L 22.011719 22.460938 z M 16.904297 22.580078 C 15.387297 22.580078 14.470703 23.560828 14.470703 25.173828 C 14.470703 26.777828 15.367734 27.699219 16.927734 27.699219 C 18.192734 27.699219 19.088766 27.098531 19.259766 26.144531 L 17.841797 26.144531 C 17.736797 26.430531 17.423703 26.597656 16.970703 26.597656 C 16.377703 26.597656 16.013 26.201453 16 25.564453 L 16 25.484375 L 19.291016 25.484375 L 19.291016 25.054688 C 19.291016 23.494687 18.411297 22.580078 16.904297 22.580078 z M 28.726562 22.580078 C 27.209563 22.580078 26.292969 23.560828 26.292969 25.173828 C 26.292969 26.777828 27.188047 27.699219 28.748047 27.699219 C 30.013047 27.699219 30.911031 27.098531 31.082031 26.144531 L 29.662109 26.144531 C 29.557109 26.430531 29.245969 26.597656 28.792969 26.597656 C 28.199969 26.597656 27.833313 26.201453 27.820312 25.564453 L 27.820312 25.484375 L 31.113281 25.484375 L 31.113281 25.054688 C 31.113281 23.494687 30.233563 22.580078 28.726562 22.580078 z M 34.265625 22.580078 C 32.942625 22.580078 32.075859 23.170141 32.005859 24.119141 L 33.402344 24.119141 C 33.503344 23.859141 33.766781 23.722656 34.175781 23.722656 C 34.606781 23.722656 34.853516 23.92 34.853516 24.25 L 34.853516 24.632812 L 33.785156 24.693359 C 32.523156 24.767359 31.828125 25.287688 31.828125 26.179688 C 31.828125 27.075688 32.470109 27.659156 33.412109 27.660156 C 34.031109 27.660156 34.567109 27.397469 34.787109 26.980469 L 34.869141 26.980469 L 34.869141 27.585938 L 36.382812 27.585938 L 36.382812 24.251953 C 36.382813 23.196953 35.614625 22.580078 34.265625 22.580078 z M 16.912109 23.681641 C 17.430109 23.681641 17.757203 24.020797 17.783203 24.591797 L 16.007812 24.591797 C 16.047812 24.038797 16.403109 23.682641 16.912109 23.681641 z M 28.734375 23.681641 C 29.252375 23.681641 29.579469 24.020797 29.605469 24.591797 L 27.830078 24.591797 C 27.869078 24.038797 28.224375 23.682641 28.734375 23.681641 z M 10.052734 24.806641 L 11.019531 24.806641 C 11.687531 24.806641 12.0625 25.096234 12.0625 25.615234 C 12.0625 26.152234 11.697297 26.447266 11.029297 26.447266 L 11.029297 26.445312 L 10.052734 26.445312 L 10.052734 24.806641 z M 34.851562 25.505859 L 34.851562 25.826172 C 34.851563 26.248172 34.469563 26.574219 33.976562 26.574219 C 33.585562 26.574219 33.326172 26.380359 33.326172 26.068359 C 33.326172 25.773359 33.568297 25.593594 34.029297 25.558594 L 34.851562 25.505859 z M 41.054688 26.056641 C 40.501688 26.056641 40.171875 26.397531 40.171875 26.894531 C 40.171875 27.386531 40.500687 27.730469 41.054688 27.730469 C 41.612687 27.730469 41.943359 27.386531 41.943359 26.894531 C 41.943359 26.398531 41.612687 26.056641 41.054688 26.056641 z"/></svg>